<svg width="18" height="10" viewBox="0 0 18 10" fill="none" xmlns="http://www.w3.org/2000/svg">
<path d="M17.0306 9.53064C16.9609 9.60037 16.8782 9.65569 16.7871 9.69343C16.6961 9.73117 16.5985 9.7506 16.4999 9.7506C16.4014 9.7506 16.3038 9.73117 16.2127 9.69343C16.1217 9.65569 16.039 9.60037 15.9693 9.53064L8.99993 2.56032L2.03055 9.53064C1.88982 9.67137 1.69895 9.75043 1.49993 9.75043C1.30091 9.75043 1.11003 9.67137 0.969304 9.53064C0.828573 9.38991 0.749512 9.19903 0.749512 9.00001C0.749512 8.80099 0.828573 8.61012 0.969304 8.46938L8.4693 0.969385C8.53896 0.899653 8.62167 0.844334 8.71272 0.806591C8.80377 0.768847 8.90137 0.74942 8.99993 0.74942C9.09849 0.74942 9.19609 0.768847 9.28713 0.806591C9.37818 0.844334 9.4609 0.899653 9.53055 0.969385L17.0306 8.46938C17.1003 8.53904 17.1556 8.62176 17.1933 8.71281C17.2311 8.80385 17.2505 8.90145 17.2505 9.00001C17.2505 9.09857 17.2311 9.19617 17.1933 9.28722C17.1556 9.37826 17.1003 9.46098 17.0306 9.53064Z" fill="black"/>
</svg>
