<svg width="40" height="48" viewBox="0 0 40 48" fill="none" xmlns="http://www.w3.org/2000/svg">
  <path d="M20 0.210571C8.78542 0.210571 0 5.83147 0 13.0061V34.9413C0 42.116 8.78542 47.7369 20 47.7369C31.2146 47.7369 40 42.116 40 34.9413V13.0061C40 5.83147 31.2146 0.210571 20 0.210571ZM36.6667 23.9737C36.6667 26.1718 35.025 28.4133 32.1646 30.1247C28.9437 32.0509 24.6229 33.1134 20 33.1134C15.3771 33.1134 11.0562 32.0509 7.83542 30.1247C4.975 28.4133 3.33333 26.1718 3.33333 23.9737V20.1716C6.8875 23.599 12.9646 25.8017 20 25.8017C27.0354 25.8017 33.1125 23.5899 36.6667 20.1716V23.9737ZM7.83542 6.85512C11.0562 4.92893 15.3771 3.86644 20 3.86644C24.6229 3.86644 28.9437 4.92893 32.1646 6.85512C35.025 8.56652 36.6667 10.808 36.6667 13.0061C36.6667 15.2042 35.025 17.4457 32.1646 19.1571C28.9437 21.0833 24.6229 22.1458 20 22.1458C15.3771 22.1458 11.0562 21.0833 7.83542 19.1571C4.975 17.4457 3.33333 15.2042 3.33333 13.0061C3.33333 10.808 4.975 8.56652 7.83542 6.85512ZM32.1646 41.0923C28.9437 43.0185 24.6229 44.081 20 44.081C15.3771 44.081 11.0562 43.0185 7.83542 41.0923C4.975 39.3809 3.33333 37.1394 3.33333 34.9413V31.1392C6.8875 34.5666 12.9646 36.7693 20 36.7693C27.0354 36.7693 33.1125 34.5575 36.6667 31.1392V34.9413C36.6667 37.1394 35.025 39.3809 32.1646 41.0923Z" fill="#2F2F2F"/>
</svg>
