<svg width="46" height="44" viewBox="0 0 46 44" fill="none" xmlns="http://www.w3.org/2000/svg">
  <path d="M41.265 27.0771H24.3838V16.752C26.661 16.3326 28.6844 15.1653 30.0619 13.4764C31.4393 11.7875 32.0727 9.69727 31.8391 7.61101C31.6055 5.52475 30.5216 3.59106 28.7976 2.18482C27.0736 0.77859 24.8323 0 22.5082 0C20.1841 0 17.9427 0.77859 16.2187 2.18482C14.4947 3.59106 13.4108 5.52475 13.1773 7.61101C12.9437 9.69727 13.577 11.7875 14.9544 13.4764C16.3319 15.1653 18.3553 16.3326 20.6325 16.752V27.0771H3.75136C2.75644 27.0771 1.80226 27.4337 1.09875 28.0684C0.395231 28.7031 0 29.564 0 30.4617V40.6154C0 41.5131 0.395231 42.3739 1.09875 43.0087C1.80226 43.6434 2.75644 44 3.75136 44H41.265C42.2599 44 43.2141 43.6434 43.9176 43.0087C44.6211 42.3739 45.0163 41.5131 45.0163 40.6154V30.4617C45.0163 29.564 44.6211 28.7031 43.9176 28.0684C43.2141 27.4337 42.2599 27.0771 41.265 27.0771ZM16.8811 8.46185C16.8811 7.45774 17.2111 6.47618 17.8295 5.64129C18.4478 4.8064 19.3266 4.15569 20.3548 3.77143C21.383 3.38717 22.5144 3.28663 23.6059 3.48252C24.6975 3.67842 25.7001 4.16194 26.4871 4.87196C27.274 5.58197 27.81 6.48658 28.0271 7.4714C28.2442 8.45622 28.1328 9.47701 27.7069 10.4047C27.281 11.3324 26.5597 12.1253 25.6344 12.6831C24.709 13.241 23.6211 13.5387 22.5082 13.5387C21.0158 13.5387 19.5845 13.0038 18.5292 12.0517C17.474 11.0996 16.8811 9.80832 16.8811 8.46185ZM41.265 40.6154H3.75136V30.4617H41.265V40.6154ZM31.8866 20.3079H39.3893C39.8867 20.3079 40.3638 20.4862 40.7156 20.8036C41.0674 21.1209 41.265 21.5514 41.265 22.0002C41.265 22.449 41.0674 22.8795 40.7156 23.1968C40.3638 23.5142 39.8867 23.6925 39.3893 23.6925H31.8866C31.3891 23.6925 30.912 23.5142 30.5603 23.1968C30.2085 22.8795 30.0109 22.449 30.0109 22.0002C30.0109 21.5514 30.2085 21.1209 30.5603 20.8036C30.912 20.4862 31.3891 20.3079 31.8866 20.3079Z" fill="#2F2F2F"/>
</svg>
