<svg width="18" height="18" viewBox="0 0 18 18" color="white" xmlns="http://www.w3.org/2000/svg">
<path d="M5.27357 17.9033C5.94522 17.9033 6.13503 17.6627 6.13503 17.3553C6.13503 17.0478 6.13503 16.3795 6.12043 15.4305C2.63077 16.1122 1.88612 13.9067 1.88612 13.9067C1.31668 12.6101 0.484415 12.2492 0.484415 12.2492C-0.654469 11.5542 0.572022 11.5675 0.572022 11.5675C1.82772 11.6477 2.49936 12.7304 2.49936 12.7304C3.62365 14.4681 5.43418 13.9602 6.14964 13.6661C6.20804 13.0913 6.48546 12.5433 6.95269 12.1423C4.16389 11.8616 1.22907 10.8858 1.22907 6.55507C1.21447 5.43227 1.6817 4.33621 2.52857 3.52085C2.38256 3.24015 1.95912 2.09062 2.63077 0.526731C2.63077 0.526731 3.68205 0.219299 6.09123 1.68963C8.14998 1.18169 10.3109 1.18169 12.3697 1.68963C14.7497 0.232666 15.8156 0.526731 15.8156 0.526731C16.4872 2.07726 16.0638 3.22678 15.947 3.52085C16.7938 4.33621 17.2465 5.43227 17.2319 6.55507C17.2319 10.8992 14.297 11.8482 11.4936 12.1289C11.9317 12.4631 12.3405 13.1582 12.3405 14.2141C12.3405 15.7379 12.3259 16.9409 12.3259 17.3018C12.3259 17.5959 12.4719 17.8365 13.1874 17.8365L5.27357 17.9033Z" fill="#141414"/>
</svg>
