<svg width="12" height="13" viewBox="0 0 12 13" fill="none" xmlns="http://www.w3.org/2000/svg">
<path d="M7.80583 6.44372C7.66493 6.88105 8.05945 7.33826 8.70759 7.43766C9.35572 7.53705 10.0039 7.25875 10.1448 6.82142L11.8637 1.6132C12.0046 1.17587 11.6101 0.718661 10.962 0.619267C10.3138 0.519874 9.6657 0.798175 9.5248 1.23551L7.80583 6.44372Z" fill="#FFDD67"/>
<path d="M8.25683 7.17924C8.93315 7.27864 9.5531 7.00034 9.72218 6.563L11.4411 1.35479C11.5257 1.11624 11.4411 0.8777 11.2439 0.698792C11.8357 0.8777 12.0329 1.23552 11.9202 1.63309L10.2012 6.84131C10.0603 7.27864 9.4122 7.57682 8.76407 7.45755C8.45409 7.41779 8.22865 7.29852 8.05957 7.13949C8.08775 7.13949 8.17229 7.15937 8.25683 7.17924Z" fill="#EBA352"/>
<path d="M10.0322 6.96058C10.0322 6.96058 7.58053 5.25101 3.24083 6.10579C3.24083 6.10579 0.676469 6.42385 0.817368 7.33827C0.817368 7.33827 0.732829 9.60444 1.83184 10.9562C3.49445 12.9639 9.89127 13.282 11.4975 9.56469C11.8357 8.82917 11.5821 6.84131 10.0322 6.96058Z" fill="#FFDD67"/>
<path d="M5.66401 6.74192C5.77672 7.19913 6.42486 7.47743 7.073 7.39791C7.72113 7.3184 8.17201 6.88107 8.05929 6.42386L6.6503 1.17588C6.53758 0.718674 5.88944 0.440372 5.24131 0.519887C4.59317 0.599402 4.14229 1.03673 4.28319 1.49394L5.66401 6.74192Z" fill="#FFDD67"/>
<path d="M6.48151 7.27863C7.15783 7.19912 7.58053 6.76179 7.46781 6.30458L6.05882 1.0566C5.97428 0.818059 5.74884 0.619272 5.46704 0.5C6.087 0.5 6.53787 0.778302 6.65059 1.17588L8.05959 6.42385C8.1723 6.88106 7.74961 7.31839 7.10147 7.39791C6.79149 7.43766 6.50969 7.39791 6.25608 7.29851C6.31244 7.29851 6.39697 7.29851 6.48151 7.27863Z" fill="#EBA352"/>
<path d="M0.676419 6.48348C0.59188 6.02627 1.07094 5.60882 1.74725 5.54919H1.77543C2.42357 5.50943 3.04352 5.82749 3.09988 6.30458L3.29714 7.59669C3.38168 8.0539 2.90263 8.47135 2.22631 8.53099H2.19813C1.52181 8.57075 0.930038 8.25269 0.873678 7.7756L0.676419 6.48348Z" fill="#FFDD67"/>
<path d="M2.95913 5.54919C2.87459 5.09198 3.35365 4.67453 4.02997 4.61489H4.05815C4.73446 4.57513 5.32624 4.89319 5.3826 5.37028L5.57986 6.66239C5.6644 7.1196 5.18534 7.53706 4.50902 7.59669H4.48084C3.80453 7.63645 3.21275 7.31839 3.15639 6.8413L2.95913 5.54919Z" fill="#FFDD67"/>
<path d="M1.83194 8.25269C2.50825 8.19305 2.95913 7.79548 2.90277 7.31839L2.70551 6.02628C2.67733 5.907 2.59279 5.76785 2.50825 5.64858C2.93095 5.78773 3.07185 6.02628 3.12821 6.30458L3.32547 7.59669C3.41001 8.0539 2.93095 8.47135 2.28281 8.51111C1.80376 8.55087 1.35288 8.37196 1.12744 8.11354C1.29652 8.21293 1.55014 8.27257 1.83194 8.25269ZM4.08632 7.31839C4.76264 7.25875 5.2417 6.86118 5.15716 6.40397L4.9599 5.11186C4.93172 4.99258 4.84718 4.83355 4.76264 4.73416C5.15716 4.89319 5.32624 5.13174 5.3826 5.41004L5.57985 6.70215C5.66439 7.15936 5.18534 7.55694 4.50902 7.61657H4.48084C4.00178 7.65633 3.55091 7.47742 3.32547 7.219C3.55091 7.29851 3.80452 7.33827 4.08632 7.31839ZM8.96143 8.21293C7.6088 7.75572 4.5372 8.55087 5.15716 10.5387C5.15716 8.47135 7.80606 8.11354 8.96143 8.21293Z" fill="#EBA352"/>
<path d="M8.45406 6.16543C7.46777 5.74797 7.29869 6.40397 5.63608 6.44373C4.9034 6.46361 4.59342 7.51718 5.69244 7.89487C7.21415 8.4316 7.32687 7.67621 7.72138 7.97439C8.1159 8.29244 8.48224 8.35208 8.8204 8.7099C9.07402 8.96832 10.9621 8.57075 11.1593 8.03402C11.5257 6.98045 9.97577 6.82142 8.45406 6.16543Z" fill="#EBA352"/>
<path d="M8.56659 6.34433C7.55212 5.92688 7.35486 6.58288 5.63589 6.62264C4.87503 6.64251 4.53688 7.73584 5.69225 8.13342C7.27032 8.69002 7.41122 7.89487 7.77756 8.21293C8.20025 8.53099 8.56659 8.61051 8.93293 8.9882C9.18655 9.2665 8.51023 10.3002 8.51023 10.3002C8.51023 10.3002 10.4546 11.2742 10.8492 10.7176C11.5818 9.68395 11.3846 8.88881 11.3564 8.29245C11.3 6.88106 10.1728 7.02021 8.56659 6.34433Z" fill="#FFDD67"/>
<path d="M10.5112 7.04008C11.5821 7.3979 11.5257 9.36589 10.7367 10.3201C8.7359 12.6856 4.33984 12.6459 2.28271 11.3736C4.19894 12.8248 8.87679 12.9639 11.0466 10.5189C11.9202 9.5448 12.202 7.27863 10.5112 7.04008Z" fill="#EBA352"/>
<path d="M8.70757 9.00808C8.79211 9.08759 8.76393 9.24662 8.73575 9.42553C8.84847 9.14723 8.93301 8.86893 8.82029 8.74965C8.48213 8.37196 8.28487 8.29244 7.86217 7.97438C7.46766 7.6762 7.35494 8.45147 5.77687 7.89487C5.18509 7.69608 4.98783 7.29851 5.04419 6.96057C4.81875 7.31839 4.93147 7.87499 5.69233 8.15329C7.2704 8.7099 7.4113 7.91475 7.77763 8.23281C8.17215 8.55087 8.36941 8.63038 8.70757 9.00808Z" fill="#EBA352"/>
</svg>
