<svg width="32" height="46" viewBox="0 0 32 46" fill="none" xmlns="http://www.w3.org/2000/svg">
  <path d="M26.534 0H5.3068C3.89935 0 2.54955 0.519259 1.55433 1.44355C0.559108 2.36783 0 3.62143 0 4.92857V41.0714C0 42.3786 0.559108 43.6322 1.55433 44.5565C2.54955 45.4807 3.89935 46 5.3068 46H26.534C27.9415 46 29.2913 45.4807 30.2865 44.5565C31.2817 43.6322 31.8408 42.3786 31.8408 41.0714V4.92857C31.8408 3.62143 31.2817 2.36783 30.2865 1.44355C29.2913 0.519259 27.9415 0 26.534 0ZM28.3029 41.0714C28.3029 41.5071 28.1166 41.925 27.7848 42.2331C27.4531 42.5412 27.0032 42.7143 26.534 42.7143H5.3068C4.83765 42.7143 4.38772 42.5412 4.05598 42.2331C3.72424 41.925 3.53787 41.5071 3.53787 41.0714V4.92857C3.53787 4.49286 3.72424 4.07499 4.05598 3.7669C4.38772 3.4588 4.83765 3.28571 5.3068 3.28571H26.534C27.0032 3.28571 27.4531 3.4588 27.7848 3.7669C28.1166 4.07499 28.3029 4.49286 28.3029 4.92857V41.0714ZM18.5738 9.03571C18.5738 9.5231 18.4182 9.99955 18.1266 10.4048C17.8351 10.81 17.4207 11.1259 16.9358 11.3124C16.451 11.4989 15.9175 11.5477 15.4028 11.4527C14.888 11.3576 14.4153 11.1229 14.0442 10.7782C13.6731 10.4336 13.4204 9.9945 13.318 9.51647C13.2156 9.03845 13.2682 8.54296 13.469 8.09267C13.6698 7.64238 14.0099 7.25751 14.4463 6.98674C14.8826 6.71596 15.3956 6.57143 15.9204 6.57143C16.6241 6.57143 17.299 6.83106 17.7966 7.2932C18.2943 7.75534 18.5738 8.38214 18.5738 9.03571Z" fill="#2F2F2F"/>
</svg>
