<svg width="54" height="39" viewBox="0 0 54 39" fill="none" xmlns="http://www.w3.org/2000/svg">
  <path d="M49.6615 0H12.4154C11.3178 0 10.2652 0.373538 9.48905 1.03844C8.71294 1.70334 8.27692 2.60514 8.27692 3.54545V7.09091H4.13846C3.04087 7.09091 1.98824 7.46445 1.21213 8.12935C0.436015 8.79425 0 9.69605 0 10.6364V35.4545C0 36.3949 0.436015 37.2967 1.21213 37.9616C1.98824 38.6265 3.04087 39 4.13846 39H41.3846C42.4822 39 43.5348 38.6265 44.311 37.9616C45.0871 37.2967 45.5231 36.3949 45.5231 35.4545V31.9091H49.6615C50.7591 31.9091 51.8118 31.5356 52.5879 30.8706C53.364 30.2057 53.8 29.3039 53.8 28.3636V3.54545C53.8 2.60514 53.364 1.70334 52.5879 1.03844C51.8118 0.373538 50.7591 0 49.6615 0ZM41.3846 10.6364V14.1818H4.13846V10.6364H41.3846ZM41.3846 35.4545H4.13846V17.7273H41.3846V35.4545ZM49.6615 28.3636H45.5231V10.6364C45.5231 9.69605 45.0871 8.79425 44.311 8.12935C43.5348 7.46445 42.4822 7.09091 41.3846 7.09091H12.4154V3.54545H49.6615V28.3636Z" fill="#2F2F2F"/>
</svg>
